<?xml version="1.0" encoding="utf-8"?>
<!-- Generator: Adobe Illustrator 22.0.1, SVG Export Plug-In . SVG Version: 6.00 Build 0)  -->
<svg version="1.1" id="Livello_1" xmlns="http://www.w3.org/2000/svg" xmlns:xlink="http://www.w3.org/1999/xlink" x="0px" y="0px"
	 viewBox="0 0 39.7 56.7" style="enable-background:new 0 0 39.7 56.7;" xml:space="preserve">
<style type="text/css">
	.st0{fill:#FCE800;}
	.st1{fill:#1D1D1B;}
</style>
<g>
	<path class="st0" d="M30.2,9V4.9h-5.8c0,0-0.3-3.1-4.5-3.1S15.4,5,15.4,5H9.7l0,4H2.2v45.1h35.3V9H30.2z"/>
	<g>
		<path class="st1" d="M1.7,56.4h32.2c3,0,5.5-2.5,5.5-5.5V9c0-0.8-0.6-1.4-1.4-1.4h-6.7V3.2h-6.1C24,1.4,22,0.3,19.8,0.3
			c-2.2,0-4.2,1.1-5.4,2.9H8.2v4.3H1.7C0.9,7.5,0.2,8.2,0.2,9v46C0.2,55.7,0.9,56.4,1.7,56.4z M11.1,6.1H16l0.4-0.8
			c0.6-1.3,1.9-2.1,3.3-2.1s2.7,0.8,3.3,2.1l0.4,0.8h4.9v5.8H11.1C11.1,11.8,11.1,6.1,11.1,6.1z M3.1,10.4h5.1v4.3h23.1v-4.3h5.2
			v40.5c0,1.5-1.2,2.6-2.6,2.6H3.1V10.4z"/>
	</g>
	<g>
		<path d="M27.3,19.9c-1.8-1-4-0.4-5,1.4l-1,1.7l6.5,3.6l1-1.7C29.8,23.2,29.1,20.9,27.3,19.9z"/>
		<polygon points="23,26.2 20.4,24.8 15.3,34 15.3,34 12,40 12,40 10.2,43.1 10.3,46.8 10.3,50.5 13.5,48.6 16.7,46.7 26.9,28.4 
			24.3,27 		"/>
	</g>
</g>
</svg>
